<svg width="31" height="22" viewBox="0 0 31 22" fill="none"
    xmlns="http://www.w3.org/2000/svg">
    <path d="M29.9665 10.2337L20.3665 0.633658C20.0545 0.321658 19.5473 0.321658 19.2353 0.633658C18.9233 0.945658 18.9233 1.45286 19.2353 1.76486L27.4689 9.99846H1.4001C0.958498 9.99846 0.600098 10.3569 0.600098 10.7985C0.600098 11.2401 0.958498 11.5985 1.4001 11.5985H27.4689L19.2353 19.8321C18.9233 20.1441 18.9233 20.6513 19.2353 20.9633C19.3921 21.1201 19.5969 21.1969 19.8017 21.1969C20.0065 21.1969 20.2113 21.1185 20.3681 20.9633L29.9681 11.3633C30.2801 11.0513 30.2801 10.5441 29.9681 10.2321L29.9665 10.2337Z" fill="#0E2A49"/>
</svg>
