<svg width="224" height="202" viewBox="0 0 224 202" fill="none"
    xmlns="http://www.w3.org/2000/svg">
    <g clip-path="url(#clip0)">
        <path fill-rule="evenodd" clip-rule="evenodd" d="M135.573 42.0925C135.573 42.0925 132.946 38.4489 133.284 38.4489C133.621 38.4489 148.917 31.1162 148.917 31.1162C148.917 31.1162 151.699 39.9701 151.443 40.0521C151.179 40.1432 135.573 42.0925 135.573 42.0925Z" fill="white"/>
        <path d="M135.354 42.5752L135.199 42.3566C133.001 38.7768 132.727 38.5126 132.682 38.3395C132.682 38.3395 142.87 33.5027 148.707 30.7062L149.181 30.4785L149.336 30.9795C152.246 40.2615 152.091 40.3162 151.571 40.4893C151.325 40.5712 142.76 41.6552 135.619 42.5388L135.354 42.5752ZM133.84 38.7039C134.168 39.2869 134.998 40.5075 135.783 41.6005C141.283 40.9174 149.099 39.9245 150.942 39.6694C150.695 38.5399 149.656 35.033 148.634 31.7538C138.209 36.7546 134.916 38.2576 133.84 38.7039Z" fill="#0B2C4A"/>
        <path fill-rule="evenodd" clip-rule="evenodd" d="M177.675 195.214L195.36 88.7939L168.892 92.2827L141.967 193.101L122.931 198.165L122.238 202C122.238 202 148.187 201.654 148.698 201.827C149.145 201.973 148.798 195.041 148.716 193.438L174.182 121.604L170.433 194.622L154.563 198.347L154.116 201.435C154.116 201.435 177.757 201.153 178.268 201.49L177.675 195.214Z" fill="#0B2C4A"/>
        <path fill-rule="evenodd" clip-rule="evenodd" d="M207.637 81.4976C207.993 81.3245 208.403 81.1787 208.686 81.033C208.339 79.2932 208.029 77.7173 207.719 76.3783C207.646 76.0595 211.669 74.3926 211.669 74.3926L213.794 79.6211C214.104 79.8853 223.608 88.4386 223.927 89.4315C224.265 90.4608 223.124 91.4536 222.121 90.5336C220.279 88.8485 219.695 88.3657 218.108 86.8536C219.038 88.721 223.061 92.9111 221.483 93.8311C220.197 94.8057 217.251 88.8303 215.892 88.0196C216.129 88.8849 219.704 95.2247 217.752 95.9261C216.338 96.4271 213.766 90.2968 213.329 89.1855C213.611 91.1348 213.484 92.3372 213.766 94.1863C214.304 97.6659 212.033 98.1396 211.55 95.744C210.729 91.6085 210.282 87.7372 208.549 84.294C205.558 84.7312 203.624 87.473 202.155 85.46C201.553 83.7566 205.302 82.6453 207.637 81.4976Z" fill="#079ED9"/>
        <path fill-rule="evenodd" clip-rule="evenodd" d="M118.116 9.01756C120.496 4.35378 125.339 2.40447 130.365 2.45912C133.949 2.49556 137.616 3.16962 140.672 5.13715C143.782 7.15023 145.232 10.8849 145.205 14.6014C145.196 16.1954 145.132 17.8077 144.986 19.3927C146.573 18.7004 147.667 20.5222 147.467 22.7265C147.366 23.8014 146.381 25.7598 145.04 26.0331C144.548 26.1333 144.128 25.9693 143.782 25.6869C143.07 27.946 142.021 30.0501 140.507 31.8901L144.803 38.822C144.803 38.822 151.443 53.6787 149.09 54.371C146.819 55.036 138.784 43.4403 138.784 43.4403L135.208 35.8525C134.779 36.0802 134.998 36.1531 134.579 36.3171C129.708 38.2391 126.388 38.7309 126.388 38.7309C122.968 36.2989 121.545 33.9214 120.022 28.3741C116.082 28.6929 114.166 29.039 114.267 28.6929C114.385 28.3103 115.069 24.5119 117.742 19.7388C117.295 16.2956 117.076 12.1055 117.514 10.0378C117.705 9.1542 117.705 9.83737 118.116 9.01756Z" fill="#079ED9"/>
        <path fill-rule="evenodd" clip-rule="evenodd" d="M126.571 18.1995C126.735 19.1833 127.2 19.9302 127.62 19.8574C128.03 19.7845 128.24 18.9282 128.076 17.9445C127.911 16.9607 127.446 16.2138 127.027 16.2866C126.616 16.3504 126.416 17.2067 126.571 18.1995Z" fill="#0B2C4A"/>
        <path fill-rule="evenodd" clip-rule="evenodd" d="M131.067 32.8103C130.383 33.2385 127.948 33.12 128.787 31.8175C128.97 31.5351 129.289 31.3711 129.599 31.2618C130.137 31.0796 130.712 31.025 131.277 31.107C131.478 31.1343 131.678 31.1889 131.833 31.3165C132.426 31.8084 131.469 32.5644 131.067 32.8103Z" fill="#0B2C4A"/>
        <path fill-rule="evenodd" clip-rule="evenodd" d="M118.407 27.4998C117.961 27.8186 116.164 27.7912 117.067 27.0534C117.514 26.6891 119.475 26.7346 118.407 27.4998Z" fill="#0B2C4A"/>
        <path fill-rule="evenodd" clip-rule="evenodd" d="M145.022 19.4474C146.345 12.0054 143.408 2.99664 135.236 0.500786C128.076 -1.68536 117.933 3.64337 117.505 10.3293C122.047 12.5884 131.56 7.0319 134.178 3.15149C134.032 17.9353 145.022 19.4474 145.022 19.4474Z" fill="#0B2C4A"/>
        <path d="M125.458 11.9418C125.722 11.6685 126.58 11.5775 126.634 11.7778C126.534 11.4226 126.826 11.8234 126.89 11.787C126.99 11.7778 127.091 11.7596 127.227 11.8872C127.355 12.0238 127.492 11.9874 127.556 11.9327C127.866 12.3335 128.194 12.3153 128.577 12.5521C128.769 12.6796 129.052 12.9165 129.152 13.0986C129.17 13.1351 129.261 13.5541 129.143 13.4539C128.942 13.299 128.915 13.1169 128.741 12.9529C128.614 12.8254 128.34 12.6068 128.185 12.5248C127.984 12.4155 128.048 12.4519 127.82 12.379C127.574 12.3062 127.291 12.124 127.063 12.0602C126.881 12.0147 126.771 12.0784 126.598 12.042C126.452 12.0147 126.261 11.9054 126.124 11.8963C125.804 11.878 125.75 12.2424 125.385 12.124C125.376 12.0693 125.403 12.0056 125.458 11.9418Z" fill="#0B2C4A"/>
        <path d="M145.925 22.2346C145.934 22.0706 145.943 21.8976 145.88 21.7427C145.843 21.6516 145.761 21.6152 145.715 21.5332C145.679 21.4603 145.679 21.3601 145.633 21.2964C145.533 21.1506 145.268 21.1871 145.214 21.0049C145.259 20.9867 145.314 20.9867 145.369 21.0049C145.642 21.0777 146.016 21.4421 145.907 21.4968C146.108 21.3966 145.953 21.5878 145.998 21.6152C146.044 21.6607 146.089 21.6972 146.053 21.7791C146.016 21.8611 146.08 21.9158 146.144 21.934C146.016 22.0979 146.089 22.2346 146.108 22.3894C146.144 22.5078 146.117 22.7265 146.071 22.854C145.98 23.109 145.788 23.2275 145.834 23.5281C145.77 23.5281 145.679 23.5645 145.679 23.6738C145.67 23.7831 145.606 23.8104 145.542 23.8469C145.487 23.856 145.533 24.1566 145.405 23.9471C145.478 24.0564 144.958 24.3387 144.676 24.3114C144.612 24.3023 144.566 24.2841 144.539 24.2477C144.676 24.0564 144.895 24.2021 145.059 24.0746C145.132 24.0199 145.177 23.8924 145.241 23.8286C145.323 23.7467 145.414 23.7376 145.487 23.6465C145.715 23.3732 145.907 22.8813 145.907 22.517C145.916 22.435 145.925 22.3348 145.925 22.2346Z" fill="#0B2C4A"/>
        <path fill-rule="evenodd" clip-rule="evenodd" d="M104.453 63.298C103.404 60.8112 102.637 58.2152 101.908 55.6192C101.753 55.0726 101.598 54.5079 101.634 53.9431C101.671 53.3783 101.917 52.7863 102.419 52.5039C103.166 52.0667 104.17 52.4948 104.69 53.1962C105.2 53.8885 105.365 54.7811 105.574 55.6192C106.906 61.0208 110.545 65.5115 113.893 69.9475C114.44 70.6671 115.005 71.4687 114.978 72.3796C114.951 73.3452 114.239 74.165 113.418 74.6842C113.044 74.921 112.616 75.1123 112.169 75.085C111.339 75.0303 110.828 73.8188 110.454 73.1903C109.423 71.4414 109.195 70.9859 107.745 69.565C106.04 67.898 105.355 65.4477 104.453 63.298Z" fill="#079ED9"/>
        <path fill-rule="evenodd" clip-rule="evenodd" d="M154.444 33.1475C154.535 33.0655 152.684 33.6394 150.203 34.5047L149.546 30.7974C146.664 31.8631 141.091 35.0057 139.112 36.1352L141.529 40.2616L145.287 50.0992L137.315 39.9701C135.838 40.553 134.369 41.555 133.712 43.4133C133.211 44.8434 132.964 46.5741 133.448 48.1044C134.524 56.7943 136.987 75.6954 130.794 77.8906C122.412 80.8601 112.889 68.8181 112.889 68.8181C112.889 68.8181 110.509 71.1318 109.569 71.9607C113.373 79.0566 121.18 89.9235 133.192 86.6625C142.478 84.1394 143.326 69.729 143.116 62.4874C146.08 67.1329 149.045 71.7785 152.036 76.3968C154.517 80.2316 156.916 84.2942 159.433 88.2657C161.951 92.2372 157.545 129.11 157.545 129.11C159.123 129.138 161.175 129.21 163.501 129.32C164.587 129.374 167.943 111.694 167.943 111.694C167.943 111.694 169.038 129.602 170.114 129.666C171.327 129.739 172.558 129.812 173.808 129.884C174.82 129.948 175.833 130.012 176.854 130.076C187.161 130.732 197.084 131.479 197.084 131.479C197.084 131.479 195.725 92.5014 195.36 88.7849C195.36 88.7849 177.584 63.3254 167.824 47.6125C195.917 54.2529 207.336 77.8451 208.13 78.6558C210.437 77.4898 211.504 77.3076 212.562 76.7247C212.572 76.7338 198.662 34.7598 154.444 33.1475Z" fill="white"/>
        <path d="M109.834 68.0345C107.125 63.4982 101.479 53.779 98.2594 47.4483C102.254 42.9576 103.285 33.9852 100.403 24.4026C98.7337 18.8462 95.9883 13.9364 92.6865 10.5661C88.9379 6.74949 84.8152 5.26473 81.0939 6.37602C73.9522 8.51662 71.2433 19.7935 74.919 32.045C78.1934 42.9575 85.2804 50.4269 91.8292 50.4269C92.4038 50.4269 92.9784 50.3449 93.5439 50.2265C95.8697 54.8994 100.22 62.7057 105.027 71.6963L109.834 68.0345ZM80.1636 30.4783C77.3087 20.9685 79.1238 12.6794 82.6627 11.6137C82.9363 11.5317 83.2282 11.4861 83.5383 11.4861C85.0615 11.4861 86.9221 12.5063 88.7737 14.3919C91.437 17.1064 93.7628 21.3238 95.1583 25.9785C98.0131 35.4882 96.1981 43.7774 92.6592 44.8431C89.1203 45.918 83.0275 39.988 80.1636 30.4783Z" fill="#0B2C4A"/>
        <path fill-rule="evenodd" clip-rule="evenodd" d="M102.528 56.4297C101.634 56.6665 100.758 56.9944 99.9011 57.3405C98.8249 57.7778 96.9004 57.9417 96.5082 59.2079C96.4078 59.5267 96.4078 59.8728 96.4169 60.2008C96.499 62.6875 98.2229 67.4879 101.47 67.3513C103.367 67.2784 105.237 66.7774 106.924 65.903C107.353 65.6752 107.827 65.3382 107.809 64.8463C107.791 64.4364 107.38 64.1267 106.97 64.0721C106.559 64.0174 106.149 64.154 105.757 64.2907C106.441 63.9628 107.07 63.5346 107.617 63.0154C107.818 62.8241 108.01 62.6146 108.064 62.3505C108.156 61.9041 107.782 61.4669 107.353 61.312C106.924 61.1572 106.45 61.221 105.994 61.2847C106.322 61.0023 106.651 60.7109 106.86 60.3283C107.07 59.9548 107.134 59.4629 106.915 59.0895C106.696 58.7251 106.258 58.552 105.839 58.5429C105.419 58.5338 105.009 58.6705 104.608 58.798C105.118 58.4518 105.52 57.9053 105.538 57.295C105.602 55.9651 104.179 55.9924 102.528 56.4297Z" fill="#079ED9"/>
        <path d="M124.281 19.8027L0.072998 60.2282" stroke="#0B2C4A" stroke-width="0.5" stroke-miterlimit="10" stroke-dasharray="4 4"/>
        <path d="M168.582 103.969L167.669 103.933L168.208 91.49C168.235 90.9526 168.253 90.4061 168.153 89.896C168.007 89.1399 167.587 88.4385 167.186 87.7645L144.812 50.0808L145.597 49.6162L167.97 87.2999C168.39 88.0104 168.873 88.8211 169.047 89.7229C169.165 90.3423 169.138 90.9708 169.111 91.5356L168.582 103.969Z" fill="#0B2C4A"/>
        <path d="M178.523 91.6359L178.478 90.725C181.907 90.552 185.291 89.887 188.538 88.7666L188.839 89.632C185.501 90.7797 182.035 91.4538 178.523 91.6359Z" fill="#0B2C4A"/>
        <path d="M158.607 46.0019L151.47 51.7036L152.04 52.4149L159.177 46.7132L158.607 46.0019Z" fill="#0B2C4A"/>
        <path d="M147.129 36.0439L151.297 34.6593L150.057 33.7939L146.737 35.4427L147.129 36.0439Z" fill="#0B2C4A"/>
        <path d="M213 76.5968C212.863 76.1778 198.507 34.3586 154.563 32.7008C154.544 32.7008 154.517 32.7008 154.499 32.7008C154.49 32.7008 154.472 32.7008 154.462 32.7008C154.043 32.719 153.094 33.0196 150.559 33.9122L149.893 30.1958L149.382 30.3871C146.655 31.3982 138.355 35.8251 138.355 35.8251L141.1 40.4434L143.791 47.4755L135.856 37.3736L135.153 37.8655L146.773 52.7404L141.921 40.0517L139.732 36.317C141.976 35.0418 146.491 32.5368 149.191 31.4346L149.847 35.1237L150.358 34.9416C152.52 34.1855 154.098 33.6936 154.444 33.6117C195.616 35.1146 210.492 72.3975 212.006 76.5148C211.669 76.6788 211.313 76.8154 210.884 76.9702C210.218 77.2253 209.407 77.535 208.285 78.0815C208.194 77.9267 208.066 77.7263 207.947 77.5168C195.889 57.4042 179.527 49.9167 167.934 47.1749L166.858 46.9198L167.441 47.858C176.79 62.906 193.691 87.1905 194.914 88.9485C195.26 92.9656 196.446 126.441 196.601 130.986C194.448 130.822 185.756 130.185 176.872 129.62L173.826 129.429C172.631 129.356 171.455 129.283 170.287 129.219C169.64 127.962 168.791 118.307 168.381 111.666L168.162 108.014L167.478 111.602C166.228 118.179 164.158 127.698 163.355 128.846C161.23 128.745 159.442 128.682 158.047 128.654C158.585 124.045 162.252 91.8634 159.807 88.0103C158.704 86.2705 157.627 84.5216 156.56 82.7726C155.21 80.5683 153.815 78.3001 152.41 76.1322C149.419 71.5049 146.454 66.8684 143.49 62.2229L142.605 60.8292L142.651 62.487C142.833 68.7904 142.268 83.7018 133.065 86.2067C122.147 89.1853 114.586 80.2312 110.135 72.0423C110.928 71.3227 112.214 70.0748 112.844 69.4736C114.613 71.5777 123.114 81.0693 130.94 78.3001C137.37 76.0229 135.153 58.1329 133.959 48.5139L133.877 47.9491C133.348 46.264 133.813 44.4695 134.132 43.5495C134.396 42.7844 135.071 41.9463 135.673 41.3998C135.573 41.1539 135.29 40.917 135.126 40.6711C134.26 41.3634 133.63 42.2196 133.275 43.2398C132.91 44.2691 132.399 46.2822 132.992 48.1404L133.056 48.6323C134.05 56.6482 136.376 75.4126 130.639 77.4439C122.658 80.2677 113.336 68.6356 113.245 68.5263L112.935 68.1255L112.57 68.4807C112.543 68.508 110.19 70.7944 109.268 71.6051L108.995 71.8419L109.168 72.1607C117.477 87.6641 126.881 88.8301 133.311 87.0812C142.405 84.6035 143.618 71.2225 143.599 64.072C146.272 68.2621 148.953 72.4522 151.653 76.6241C153.049 78.7738 154.444 81.051 155.794 83.2463C156.87 84.9952 157.947 86.7533 159.05 88.4931C161.048 91.6448 158.311 118.826 157.098 129.037L157.034 129.538L157.536 129.547C159.023 129.574 161.02 129.647 163.474 129.757C163.884 129.784 164.815 129.839 167.706 115.237C168.737 130.021 169.667 130.075 170.077 130.103C171.29 130.176 172.522 130.248 173.771 130.321L176.809 130.513C186.997 131.159 196.938 131.906 197.039 131.915L197.549 131.952L197.531 131.442C197.477 129.848 196.172 92.4099 195.807 88.7208L195.798 88.6024L195.725 88.5022C195.552 88.2562 178.551 63.8807 168.8 48.3044C180.147 51.2101 195.634 58.7432 207.154 77.9631C207.555 78.6281 207.683 78.8467 207.801 78.956L208.039 79.1928L208.34 79.038C209.598 78.4003 210.492 78.0542 211.203 77.7809C211.787 77.5623 212.289 77.371 212.781 77.0887L213.11 76.9065L213 76.5968Z" fill="#0B2C4A"/>
    </g>
    <defs>
        <clipPath id="clip0">
            <rect width="224" height="202" fill="white"/>
        </clipPath>
    </defs>
</svg>
