<svg xmlns="http://www.w3.org/2000/svg" viewBox="0 0 1716.59 226.92">
    <defs>
        <style>.cls-1{fill:#009fe3;}.cls-2{fill:#a6ddf5;}.cls-3{fill:#012a4c;}</style>
    </defs>
    <g id="dfø_navnetrekk_og_symbol" data-name="dfø navnetrekk og symbol">
        <rect class="cls-1" x="113.4" y="31.51" width="85" height="28.3"/>
        <polyline class="cls-2" points="198.5 102.41 56.7 102.41 56.7 130.71 198.5 130.71 198.5 102.41"/>
        <rect class="cls-3" y="67.01" width="198.4" height="28.3"/>
        <path class="cls-3" d="M265.9,57.51l.5,11a42.29,42.29,0,0,0-8.4-5.4A23.68,23.68,0,0,0,247.7,61a27.75,27.75,0,0,0-11.3,2.5,29.54,29.54,0,0,0-9.4,7.2A35.63,35.63,0,0,0,220.5,82a43.49,43.49,0,0,0-2.5,14.9c0,11.3,2.6,20.2,7.7,26.4s12,9.3,20.6,9.3a23.46,23.46,0,0,0,11.3-2.9,46,46,0,0,0,9.3-6.7h.1l1,7.9h10V31.11H265.9v26.4Zm0,20.6v35.2a31.34,31.34,0,0,1-8.2,6.9,18.05,18.05,0,0,1-8.8,2.3,16,16,0,0,1-13.6-6.7c-3.2-4.5-4.8-10.9-4.8-19a34.13,34.13,0,0,1,1.5-10.5,28,28,0,0,1,4.1-8.1,18.83,18.83,0,0,1,6.1-5.2,16.05,16.05,0,0,1,7.5-1.9,20.89,20.89,0,0,1,8.1,1.6A31.63,31.63,0,0,1,265.9,78.11Z"/>
        <path class="cls-3" d="M330.4,31.81a27.37,27.37,0,0,0-5.3-1.6,30.05,30.05,0,0,0-6.1-.6c-6.8,0-11.9,2-15.2,6.1s-4.9,9.6-4.9,16.6v10.5l-9.2.7v9.1h9.2V131h11.9V72.61h14.4v-9.8H310.8V52.31c0-8.6,3-12.9,9.2-12.9a18.66,18.66,0,0,1,7.6,1.7l.3.1,2.7-9.3Z"/>
        <path class="cls-3" d="M385.9,72.91l7.6-9.1-5.4-4.4-7,8.5a27.43,27.43,0,0,0-8.9-5.1A31.18,31.18,0,0,0,361.8,61a30.22,30.22,0,0,0-22.1,9.4,36.63,36.63,0,0,0-7,11.3,42.09,42.09,0,0,0-2.6,15.2,43.07,43.07,0,0,0,2,13.5,34.81,34.81,0,0,0,5.4,10.3l-7.6,9.1,5.6,4.4,6.8-8.4a30,30,0,0,0,19.3,6.7,30.61,30.61,0,0,0,12-2.4,29.16,29.16,0,0,0,10.1-7,35,35,0,0,0,7-11.2,41.92,41.92,0,0,0,2.6-15.1,45.31,45.31,0,0,0-2-13.7A34.26,34.26,0,0,0,385.9,72.91Zm-24.1-2.1a16.76,16.76,0,0,1,12.6,5.3L345,111.71a35.38,35.38,0,0,1-3-15.3A33.93,33.93,0,0,1,343.5,86a25.67,25.67,0,0,1,4.1-8.1,17.61,17.61,0,0,1,6.3-5.2A16.19,16.19,0,0,1,361.8,70.81Zm0,52.2a17.53,17.53,0,0,1-12.6-5.2L378.5,82a34.69,34.69,0,0,1,3.1,15.4,33.93,33.93,0,0,1-1.5,10.4,28,28,0,0,1-4.1,8.1,19.5,19.5,0,0,1-6.3,5.2A18,18,0,0,1,361.8,123Z"/>
        <rect class="cls-3" x="419.28" width="10" height="209.03"/>
    </g>
    <g id="undertittel">
        <path class="cls-3" d="M455.8,209.27v-42H480v4.48H461.11V186h16v4.48h-16v18.82Z"/>
        <path class="cls-3" d="M491.89,210a9.4,9.4,0,0,1-6.49-2.31,8.25,8.25,0,0,1-2.59-6.52,8.62,8.62,0,0,1,4.54-7.84q4.54-2.73,14.53-3.81a14.5,14.5,0,0,0-.29-2.88,7.2,7.2,0,0,0-1-2.5,5.29,5.29,0,0,0-2-1.76,6.65,6.65,0,0,0-3.17-.67,12.67,12.67,0,0,0-5.06,1,25,25,0,0,0-4.22,2.31l-2.05-3.65a34.28,34.28,0,0,1,5.31-2.72,17.8,17.8,0,0,1,6.91-1.31q5.7,0,8.26,3.49c1.71,2.32,2.56,5.43,2.56,9.31v19.07h-4.35l-.45-3.71h-.19a26.94,26.94,0,0,1-4.8,3.17A12,12,0,0,1,491.89,210Zm1.54-4.23a8.89,8.89,0,0,0,4.22-1.05,21.28,21.28,0,0,0,4.23-3.11V193a54.25,54.25,0,0,0-6.56,1.22,17.39,17.39,0,0,0-4.29,1.66,6.46,6.46,0,0,0-2.37,2.21,5.26,5.26,0,0,0-.73,2.72,4.43,4.43,0,0,0,1.59,3.84A6.51,6.51,0,0,0,493.43,205.81Z"/>
        <path class="cls-3" d="M527.48,223.61a23.64,23.64,0,0,1-5.25-.55,12.84,12.84,0,0,1-4.07-1.63,8.19,8.19,0,0,1-2.62-2.62,6.81,6.81,0,0,1-.93-3.59,6.6,6.6,0,0,1,1.22-3.77,12.66,12.66,0,0,1,3.33-3.27v-.25a6.11,6.11,0,0,1-2-2,5.64,5.64,0,0,1-.8-3.1,5.73,5.73,0,0,1,1.09-3.46,9.84,9.84,0,0,1,2.31-2.3v-.26a12.69,12.69,0,0,1-2.79-3.42,9.69,9.69,0,0,1-1.24-5,11,11,0,0,1,.92-4.61,10.45,10.45,0,0,1,2.53-3.49,11.06,11.06,0,0,1,3.75-2.2,13,13,0,0,1,4.51-.77,12.24,12.24,0,0,1,2.4.22,13.85,13.85,0,0,1,2,.55h10.82v4h-6.4a9.19,9.19,0,0,1,2.56,6.4,10.94,10.94,0,0,1-.9,4.51,9.91,9.91,0,0,1-2.43,3.39,11.24,11.24,0,0,1-3.61,2.15,12.8,12.8,0,0,1-4.45.76,10.35,10.35,0,0,1-2.37-.28,12.25,12.25,0,0,1-2.3-.8,7.38,7.38,0,0,0-1.41,1.56,3.77,3.77,0,0,0-.58,2.15,3,3,0,0,0,1.15,2.43q1.15,1,4.35,1h6q5.45,0,8.16,1.76t2.72,5.66a8.31,8.31,0,0,1-1.09,4.13,10.66,10.66,0,0,1-3.13,3.43,16.4,16.4,0,0,1-5,2.33A22.9,22.9,0,0,1,527.48,223.61Zm.76-3.65a14,14,0,0,0,4.07-.55,11.39,11.39,0,0,0,3.1-1.4,6.59,6.59,0,0,0,2-2,4.49,4.49,0,0,0,.7-2.37,3.09,3.09,0,0,0-1.6-3,10.46,10.46,0,0,0-4.67-.83h-5.38q-.9,0-2-.09a10.66,10.66,0,0,1-2.08-.42,8.4,8.4,0,0,0-2.43,2.56,5.41,5.41,0,0,0-.77,2.69,4.5,4.5,0,0,0,2.4,4A12.66,12.66,0,0,0,528.24,220Zm-.76-24.07a6.35,6.35,0,0,0,2.53-.51,6.59,6.59,0,0,0,2.11-1.47,6.75,6.75,0,0,0,1.44-2.34,8.84,8.84,0,0,0,.51-3.1,7.16,7.16,0,0,0-1.92-5.34,6.71,6.71,0,0,0-9.34,0,7.12,7.12,0,0,0-1.92,5.34,8.84,8.84,0,0,0,.51,3.1,6.6,6.6,0,0,0,1.44,2.34,6.33,6.33,0,0,0,4.64,2Z"/>
        <path class="cls-3" d="M557.36,210a16.74,16.74,0,0,1-6.33-1.22,19.56,19.56,0,0,1-5.25-3.07l2.62-3.52a21.08,21.08,0,0,0,4.2,2.69,11.42,11.42,0,0,0,5,1,6.6,6.6,0,0,0,4.6-1.41,4.47,4.47,0,0,0,1.54-3.45,3.5,3.5,0,0,0-.64-2.11,6.43,6.43,0,0,0-1.63-1.57,12.4,12.4,0,0,0-2.27-1.19l-2.56-1c-1.11-.38-2.22-.82-3.33-1.31a13.55,13.55,0,0,1-3-1.79,9.14,9.14,0,0,1-2.14-2.47,6.5,6.5,0,0,1-.83-3.39,8.4,8.4,0,0,1,.73-3.49,8.07,8.07,0,0,1,2.11-2.81,10.09,10.09,0,0,1,3.36-1.86,15.06,15.06,0,0,1,9.89.35,16.79,16.79,0,0,1,4.26,2.5l-2.5,3.33a16.5,16.5,0,0,0-3.32-2,9.29,9.29,0,0,0-3.78-.77,6,6,0,0,0-4.32,1.35,4.23,4.23,0,0,0-1.38,3.13,3.1,3.1,0,0,0,.58,1.89,5.49,5.49,0,0,0,1.53,1.41,12.3,12.3,0,0,0,2.21,1.09l2.59,1c1.11.43,2.23.88,3.37,1.34a13.35,13.35,0,0,1,3,1.76,8.66,8.66,0,0,1,2.2,2.6,7.4,7.4,0,0,1,.87,3.71,8.76,8.76,0,0,1-.74,3.58,8.58,8.58,0,0,1-2.17,2.95,10.46,10.46,0,0,1-3.59,2A15.06,15.06,0,0,1,557.36,210Z"/>
        <path class="cls-3" d="M578.74,171.77a3.71,3.71,0,0,1-2.59-1,3.36,3.36,0,0,1,0-4.9,4.07,4.07,0,0,1,5.18,0,3.36,3.36,0,0,1,0,4.9A3.71,3.71,0,0,1,578.74,171.77Zm-2.69,37.5v-31.1h5.25v31.1Z"/>
        <path class="cls-3" d="M602.42,210a11.53,11.53,0,0,1-9.38-4.23q-3.48-4.22-3.48-12a19.5,19.5,0,0,1,1.12-6.81,16,16,0,0,1,3-5.16,13.36,13.36,0,0,1,4.29-3.26,11.79,11.79,0,0,1,5.12-1.15,10.61,10.61,0,0,1,4.67,1,20.72,20.72,0,0,1,4,2.62l-.25-5.31v-12h5.31v45.57h-4.35l-.45-3.65h-.19a19.78,19.78,0,0,1-4.26,3.11A10.63,10.63,0,0,1,602.42,210Zm1.15-4.42a8.42,8.42,0,0,0,4.1-1.05,14.91,14.91,0,0,0,3.84-3.24V185.08a13.16,13.16,0,0,0-3.81-2.53,9.93,9.93,0,0,0-3.74-.74,7.31,7.31,0,0,0-3.49.87,8.65,8.65,0,0,0-2.85,2.43,12.22,12.22,0,0,0-1.92,3.74,15.83,15.83,0,0,0-.7,4.87c0,3.75.74,6.68,2.24,8.77A7.31,7.31,0,0,0,603.57,205.62Z"/>
        <path class="cls-3" d="M639.92,210a15.31,15.31,0,0,1-5.85-1.12,14,14,0,0,1-4.74-3.2,14.91,14.91,0,0,1-3.17-5.09,19.21,19.21,0,0,1-1.15-6.85,18.84,18.84,0,0,1,1.18-6.88,16.23,16.23,0,0,1,3.14-5.15,13.55,13.55,0,0,1,4.45-3.23A12.45,12.45,0,0,1,639,177.4a13,13,0,0,1,5.28,1,10.32,10.32,0,0,1,3.91,3,13.68,13.68,0,0,1,2.4,4.6,20.52,20.52,0,0,1,.83,6c0,.56,0,1.1,0,1.63a9.57,9.57,0,0,1-.16,1.38h-21a12.15,12.15,0,0,0,3.11,7.9,9.59,9.59,0,0,0,7.26,2.91,12.17,12.17,0,0,0,4.13-.67,18.33,18.33,0,0,0,3.62-1.76l1.85,3.46a26.65,26.65,0,0,1-4.54,2.24A15.8,15.8,0,0,1,639.92,210Zm-9.79-18.82h16.64q0-4.74-2-7.2a6.94,6.94,0,0,0-5.67-2.46,8,8,0,0,0-3.17.64,8.3,8.3,0,0,0-2.72,1.89,10.19,10.19,0,0,0-2,3A13.48,13.48,0,0,0,630.13,191.22Z"/>
        <path class="cls-3" d="M659.06,209.27v-31.1h4.35l.45,5.63h.19a14.47,14.47,0,0,1,3.87-4.67,8,8,0,0,1,5-1.73,8.21,8.21,0,0,1,3.33.64l-1,4.61a14.1,14.1,0,0,0-1.41-.39,8.82,8.82,0,0,0-1.6-.13,7,7,0,0,0-4.13,1.6,12.73,12.73,0,0,0-3.74,5.57v20Z"/>
        <path class="cls-3" d="M706.16,210a13.91,13.91,0,0,1-5.47-1.09,13.43,13.43,0,0,1-4.58-3.17,15.38,15.38,0,0,1-3.17-5.12,20.82,20.82,0,0,1,0-13.82,15.73,15.73,0,0,1,3.17-5.15,13.24,13.24,0,0,1,4.58-3.2,14.27,14.27,0,0,1,10.94,0,13.15,13.15,0,0,1,4.58,3.2,15.73,15.73,0,0,1,3.17,5.15,20.82,20.82,0,0,1,0,13.82,15.38,15.38,0,0,1-3.17,5.12,13.33,13.33,0,0,1-4.58,3.17A13.91,13.91,0,0,1,706.16,210Zm0-4.35a7.77,7.77,0,0,0,3.65-.87,8.27,8.27,0,0,0,2.85-2.43,11.54,11.54,0,0,0,1.82-3.74,17.14,17.14,0,0,0,.64-4.87,17.39,17.39,0,0,0-.64-4.89,11.93,11.93,0,0,0-1.82-3.81,8.28,8.28,0,0,0-2.85-2.47,8.18,8.18,0,0,0-7.3,0,8.28,8.28,0,0,0-2.85,2.47,11.93,11.93,0,0,0-1.82,3.81,17.39,17.39,0,0,0-.64,4.89,17.14,17.14,0,0,0,.64,4.87,11.54,11.54,0,0,0,1.82,3.74,8.27,8.27,0,0,0,2.85,2.43A7.77,7.77,0,0,0,706.16,205.69Z"/>
        <path class="cls-3" d="M728.75,209.27v-31.1h4.35l.45,4.48h.19a21.37,21.37,0,0,1,4.45-3.75,9.66,9.66,0,0,1,5.22-1.5A8.9,8.9,0,0,1,749,179a9.07,9.07,0,0,1,3,4.38,26.46,26.46,0,0,1,4.9-4.32,9.45,9.45,0,0,1,5.34-1.63q4.8,0,7.14,3.07t2.34,9.09v19.71h-5.25v-19q0-4.41-1.41-6.37a5,5,0,0,0-4.35-1.95q-3.53,0-7.81,4.8v22.53h-5.25v-19q0-4.41-1.41-6.37a5.06,5.06,0,0,0-4.41-1.95q-3.52,0-7.81,4.8v22.53Z"/>
        <path class="cls-3" d="M806.7,210a13.91,13.91,0,0,1-5.47-1.09,13.3,13.3,0,0,1-4.57-3.17,15.22,15.22,0,0,1-3.17-5.12,20.66,20.66,0,0,1,0-13.82,15.56,15.56,0,0,1,3.17-5.15,13.11,13.11,0,0,1,4.57-3.2,14.3,14.3,0,0,1,10.95,0,13.2,13.2,0,0,1,4.57,3.2,15.73,15.73,0,0,1,3.17,5.15,20.82,20.82,0,0,1,0,13.82,15.38,15.38,0,0,1-3.17,5.12,13.39,13.39,0,0,1-4.57,3.17A14,14,0,0,1,806.7,210Zm0-4.35a7.74,7.74,0,0,0,3.65-.87,8.27,8.27,0,0,0,2.85-2.43,11.34,11.34,0,0,0,1.82-3.74,17.14,17.14,0,0,0,.64-4.87,17.39,17.39,0,0,0-.64-4.89,11.72,11.72,0,0,0-1.82-3.81,8.28,8.28,0,0,0-2.85-2.47,8.15,8.15,0,0,0-7.29,0,8.28,8.28,0,0,0-2.85,2.47,11.94,11.94,0,0,0-1.83,3.81,17.76,17.76,0,0,0-.64,4.89,17.51,17.51,0,0,0,.64,4.87,11.55,11.55,0,0,0,1.83,3.74,8.27,8.27,0,0,0,2.85,2.43A7.7,7.7,0,0,0,806.7,205.69Z"/>
        <path class="cls-3" d="M848.43,209.27V182.45h-13v26.82h-5.25V182.45H826v-4l4.22-.32v-4.1a11.47,11.47,0,0,1,2.4-7.68q2.4-2.82,7.26-2.82a14.9,14.9,0,0,1,3,.32,14,14,0,0,1,2.65.84l-1.09,4a10.4,10.4,0,0,0-4.16-.83,4.31,4.31,0,0,0-3.58,1.63,7.53,7.53,0,0,0-1.28,4.71v4h13v-4.93a11.74,11.74,0,0,1,2.21-7.55q2.21-2.76,6.88-2.76a13,13,0,0,1,2.78.29,13.82,13.82,0,0,1,2.4.74l-1.15,4a8.63,8.63,0,0,0-3.52-.77q-4.35,0-4.35,6v4.93h6.59v4.28h-6.59v26.82Z"/>
        <path class="cls-3" d="M878.19,210a15.4,15.4,0,0,1-5.86-1.12,14,14,0,0,1-4.73-3.2,14.76,14.76,0,0,1-3.17-5.09,20.81,20.81,0,0,1,0-13.73,16.23,16.23,0,0,1,3.14-5.15,13.55,13.55,0,0,1,4.45-3.23,12.45,12.45,0,0,1,5.18-1.12,13.09,13.09,0,0,1,5.28,1,10.32,10.32,0,0,1,3.91,3,13.68,13.68,0,0,1,2.4,4.6,20.52,20.52,0,0,1,.83,6c0,.56,0,1.1,0,1.63a9.57,9.57,0,0,1-.16,1.38h-21a12.15,12.15,0,0,0,3.11,7.9,9.57,9.57,0,0,0,7.26,2.91,12.21,12.21,0,0,0,4.13-.67,18.33,18.33,0,0,0,3.62-1.76l1.85,3.46a26.65,26.65,0,0,1-4.54,2.24A15.84,15.84,0,0,1,878.19,210Zm-9.79-18.82H885q0-4.74-2-7.2a6.9,6.9,0,0,0-5.66-2.46,8,8,0,0,0-3.17.64,8.3,8.3,0,0,0-2.72,1.89,10.19,10.19,0,0,0-2,3A13.48,13.48,0,0,0,868.4,191.22Z"/>
        <path class="cls-3" d="M897.33,209.27v-31.1h4.35l.45,4.48h.19a25,25,0,0,1,4.7-3.75,10.79,10.79,0,0,1,5.73-1.5q4.93,0,7.2,3.07t2.27,9.09v19.71H917v-19q0-4.41-1.4-6.37a5.16,5.16,0,0,0-4.48-1.95,7.65,7.65,0,0,0-4.29,1.22,27.59,27.59,0,0,0-4.23,3.58v22.53Z"/>
        <path class="cls-3" d="M942.13,210a10.2,10.2,0,0,1-4.2-.77,7.29,7.29,0,0,1-2.75-2.11,8.35,8.35,0,0,1-1.5-3.27,18.45,18.45,0,0,1-.45-4.22V182.45h-4.61v-4l4.87-.32.64-8.71h4.41v8.71h8.39v4.28h-8.39v17.28a7.87,7.87,0,0,0,1.06,4.45c.7,1,1.95,1.57,3.74,1.57a7,7,0,0,0,1.79-.26,14,14,0,0,0,1.73-.57l1,4c-.86.3-1.79.56-2.79.8A13.23,13.23,0,0,1,942.13,210Z"/>
        <path class="cls-3" d="M959.53,210a4.9,4.9,0,0,1-4.28-1.79A9,9,0,0,1,954,203V163.7h5.24v39.68a2.72,2.72,0,0,0,.45,1.79,1.32,1.32,0,0,0,1,.52h.48a3.12,3.12,0,0,0,.67-.13l.7,4a4.78,4.78,0,0,1-1.21.38A10.92,10.92,0,0,1,959.53,210Z"/>
        <path class="cls-3" d="M973,171.77a3.71,3.71,0,0,1-2.59-1,3.38,3.38,0,0,1,0-4.9,4.09,4.09,0,0,1,5.19,0,3.38,3.38,0,0,1,0,4.9A3.73,3.73,0,0,1,973,171.77Zm-2.68,37.5v-31.1h5.24v31.1Z"/>
        <path class="cls-3" d="M996.52,223.61a23.48,23.48,0,0,1-5.24-.55,12.84,12.84,0,0,1-4.07-1.63,8.19,8.19,0,0,1-2.62-2.62,6.81,6.81,0,0,1-.93-3.59,6.6,6.6,0,0,1,1.22-3.77,12.77,12.77,0,0,1,3.32-3.27v-.25a6.18,6.18,0,0,1-2-2,6.2,6.2,0,0,1,.29-6.56,9.82,9.82,0,0,1,2.3-2.3v-.26a12.67,12.67,0,0,1-2.78-3.42,9.69,9.69,0,0,1-1.25-5,11,11,0,0,1,.93-4.61,10.45,10.45,0,0,1,2.53-3.49,11,11,0,0,1,3.74-2.2,13.11,13.11,0,0,1,4.51-.77,12.09,12.09,0,0,1,2.4.22,13.65,13.65,0,0,1,2,.55h10.82v4h-6.4a9.19,9.19,0,0,1,2.56,6.4,10.94,10.94,0,0,1-.9,4.51,9.91,9.91,0,0,1-2.43,3.39,11.29,11.29,0,0,1-3.62,2.15,12.8,12.8,0,0,1-4.45.76,10.33,10.33,0,0,1-2.36-.28,12.6,12.6,0,0,1-2.31-.8,8,8,0,0,0-1.41,1.56,3.85,3.85,0,0,0-.57,2.15,3,3,0,0,0,1.15,2.43q1.15,1,4.35,1h6q5.43,0,8.16,1.76t2.72,5.66a8.31,8.31,0,0,1-1.09,4.13,10.7,10.7,0,0,1-3.14,3.43,16.17,16.17,0,0,1-5,2.33A22.85,22.85,0,0,1,996.52,223.61Zm.77-3.65a14,14,0,0,0,4.07-.55,11.39,11.39,0,0,0,3.1-1.4,6.66,6.66,0,0,0,2-2,4.5,4.5,0,0,0,.71-2.37,3.11,3.11,0,0,0-1.6-3,10.49,10.49,0,0,0-4.67-.83H995.5q-.9,0-2-.09a10.51,10.51,0,0,1-2.08-.42,8.4,8.4,0,0,0-2.43,2.56,5.31,5.31,0,0,0-.77,2.69,4.5,4.5,0,0,0,2.4,4A12.66,12.66,0,0,0,997.29,220Zm-.77-24.07a6.32,6.32,0,0,0,2.53-.51,6.48,6.48,0,0,0,2.11-1.47,6.6,6.6,0,0,0,1.44-2.34,8.61,8.61,0,0,0,.52-3.1,7.16,7.16,0,0,0-1.92-5.34,6.73,6.73,0,0,0-9.35,0,7.16,7.16,0,0,0-1.92,5.34,8.84,8.84,0,0,0,.51,3.1,6.9,6.9,0,0,0,1.44,2.34,6.52,6.52,0,0,0,2.12,1.47A6.31,6.31,0,0,0,996.52,195.89Z"/>
        <path class="cls-3" d="M1030,210a15.36,15.36,0,0,1-5.86-1.12,14.13,14.13,0,0,1-4.74-3.2,14.74,14.74,0,0,1-3.16-5.09,20.64,20.64,0,0,1,0-13.73,16.21,16.21,0,0,1,3.13-5.15,13.76,13.76,0,0,1,4.45-3.23,12.5,12.5,0,0,1,5.19-1.12,13.09,13.09,0,0,1,5.28,1,10.36,10.36,0,0,1,3.9,3,13.33,13.33,0,0,1,2.4,4.6,20.52,20.52,0,0,1,.83,6c0,.56,0,1.1,0,1.63a7.38,7.38,0,0,1-.16,1.38h-21a12.14,12.14,0,0,0,3.1,7.9,9.61,9.61,0,0,0,7.27,2.91,12.11,12.11,0,0,0,4.12-.67,18.06,18.06,0,0,0,3.62-1.76l1.86,3.46a26.76,26.76,0,0,1-4.55,2.24A15.75,15.75,0,0,1,1030,210Zm-9.79-18.82h16.63q0-4.74-2-7.2a6.92,6.92,0,0,0-5.66-2.46,7.91,7.91,0,0,0-3.17.64,8.19,8.19,0,0,0-2.72,1.89,10.21,10.21,0,0,0-2,3A13.78,13.78,0,0,0,1020.21,191.22Z"/>
        <path class="cls-3" d="M1069.1,210a9.42,9.42,0,0,1-6.5-2.31,8.28,8.28,0,0,1-2.59-6.52,8.63,8.63,0,0,1,4.55-7.84q4.53-2.73,14.52-3.81a14.5,14.5,0,0,0-.28-2.88,7.41,7.41,0,0,0-1-2.5,5.29,5.29,0,0,0-2-1.76,6.62,6.62,0,0,0-3.17-.67,12.63,12.63,0,0,0-5,1,25.55,25.55,0,0,0-4.23,2.31l-2-3.65a34.28,34.28,0,0,1,5.31-2.72,17.8,17.8,0,0,1,6.91-1.31q5.7,0,8.26,3.49c1.7,2.32,2.56,5.43,2.56,9.31v19.07H1080l-.44-3.71h-.2a26.24,26.24,0,0,1-4.8,3.17A11.92,11.92,0,0,1,1069.1,210Zm1.54-4.23a8.89,8.89,0,0,0,4.22-1.05,21.24,21.24,0,0,0,4.22-3.11V193a54.63,54.63,0,0,0-6.56,1.22,17.14,17.14,0,0,0-4.28,1.66,6.46,6.46,0,0,0-2.37,2.21,5.27,5.27,0,0,0-.74,2.72,4.43,4.43,0,0,0,1.6,3.84A6.51,6.51,0,0,0,1070.64,205.81Z"/>
        <path class="cls-3" d="M1094.19,209.27v-31.1h4.35l.45,4.48h.19a25,25,0,0,1,4.7-3.75,10.84,10.84,0,0,1,5.73-1.5q4.94,0,7.2,3.07c1.52,2.05,2.27,5.08,2.27,9.09v19.71h-5.24v-19q0-4.41-1.41-6.37a5.15,5.15,0,0,0-4.48-1.95,7.67,7.67,0,0,0-4.29,1.22,27.11,27.11,0,0,0-4.22,3.58v22.53Z"/>
        <path class="cls-3" d="M1137.32,210a16.71,16.71,0,0,1-6.33-1.22,19.56,19.56,0,0,1-5.25-3.07l2.62-3.52a20.8,20.8,0,0,0,4.2,2.69,11.38,11.38,0,0,0,5,1,6.6,6.6,0,0,0,4.6-1.41,4.47,4.47,0,0,0,1.54-3.45A3.5,3.5,0,0,0,1143,199a6.43,6.43,0,0,0-1.63-1.57,12.4,12.4,0,0,0-2.27-1.19l-2.56-1c-1.11-.38-2.22-.82-3.33-1.31a13.32,13.32,0,0,1-3-1.79,9.14,9.14,0,0,1-2.14-2.47,6.5,6.5,0,0,1-.83-3.39,8.4,8.4,0,0,1,.73-3.49,8.07,8.07,0,0,1,2.11-2.81,10.09,10.09,0,0,1,3.36-1.86,15.06,15.06,0,0,1,9.89.35,17,17,0,0,1,4.26,2.5l-2.5,3.33a16.57,16.57,0,0,0-3.33-2,9.21,9.21,0,0,0-3.77-.77,6,6,0,0,0-4.32,1.35,4.23,4.23,0,0,0-1.38,3.13,3.1,3.1,0,0,0,.58,1.89,5.35,5.35,0,0,0,1.53,1.41,12.3,12.3,0,0,0,2.21,1.09l2.59,1c1.11.43,2.23.88,3.36,1.34a12.94,12.94,0,0,1,3,1.76,8.55,8.55,0,0,1,2.21,2.6,7.4,7.4,0,0,1,.86,3.71,8.75,8.75,0,0,1-.73,3.58,8.61,8.61,0,0,1-2.18,2.95,10.41,10.41,0,0,1-3.58,2A15.06,15.06,0,0,1,1137.32,210Z"/>
        <path class="cls-3" d="M1156,209.27V163.7h5.18v30.85h.2l13.24-16.38h5.83L1170,190.65l11.84,18.62h-5.76l-9.09-15-5.83,6.79v8.19Z"/>
        <path class="cls-3" d="M1194.22,210a9.42,9.42,0,0,1-6.5-2.31,8.28,8.28,0,0,1-2.59-6.52,8.62,8.62,0,0,1,4.54-7.84q4.55-2.73,14.53-3.81a14.5,14.5,0,0,0-.28-2.88,7.41,7.41,0,0,0-1-2.5,5.29,5.29,0,0,0-2-1.76,6.62,6.62,0,0,0-3.17-.67,12.63,12.63,0,0,0-5,1,25.55,25.55,0,0,0-4.23,2.31l-2-3.65a34.42,34.42,0,0,1,5.32-2.72,17.8,17.8,0,0,1,6.91-1.31q5.7,0,8.26,3.49c1.7,2.32,2.55,5.43,2.55,9.31v19.07h-4.35l-.45-3.71h-.19a26.24,26.24,0,0,1-4.8,3.17A11.92,11.92,0,0,1,1194.22,210Zm1.53-4.23a8.9,8.9,0,0,0,4.23-1.05,21.24,21.24,0,0,0,4.22-3.11V193a54.63,54.63,0,0,0-6.56,1.22,17.39,17.39,0,0,0-4.29,1.66,6.5,6.5,0,0,0-2.36,2.21,5.27,5.27,0,0,0-.74,2.72,4.41,4.41,0,0,0,1.6,3.84A6.5,6.5,0,0,0,1195.75,205.81Z"/>
        <path class="cls-3" d="M1238.44,209.27V182.45h-13v26.82h-5.25V182.45H1216v-4l4.22-.32v-4.1a11.47,11.47,0,0,1,2.4-7.68q2.4-2.82,7.27-2.82a14.88,14.88,0,0,1,3,.32,14,14,0,0,1,2.65.84l-1.09,4a10.4,10.4,0,0,0-4.16-.83,4.31,4.31,0,0,0-3.58,1.63,7.53,7.53,0,0,0-1.28,4.71v4h13v-4.93a11.74,11.74,0,0,1,2.21-7.55c1.47-1.84,3.77-2.76,6.88-2.76a13,13,0,0,1,2.78.29,13.82,13.82,0,0,1,2.4.74l-1.15,4a8.6,8.6,0,0,0-3.52-.77q-4.35,0-4.35,6v4.93h6.59v4.28h-6.59v26.82Z"/>
        <path class="cls-3" d="M1268.2,210a15.31,15.31,0,0,1-5.85-1.12,14,14,0,0,1-4.74-3.2,14.91,14.91,0,0,1-3.17-5.09,20.81,20.81,0,0,1,0-13.73,16.23,16.23,0,0,1,3.14-5.15,13.55,13.55,0,0,1,4.45-3.23,12.45,12.45,0,0,1,5.18-1.12,13.05,13.05,0,0,1,5.28,1,10.32,10.32,0,0,1,3.91,3,13.68,13.68,0,0,1,2.4,4.6,20.52,20.52,0,0,1,.83,6c0,.56,0,1.1,0,1.63a9.57,9.57,0,0,1-.16,1.38h-21a12.15,12.15,0,0,0,3.11,7.9,9.59,9.59,0,0,0,7.26,2.91,12.17,12.17,0,0,0,4.13-.67,18.33,18.33,0,0,0,3.62-1.76l1.85,3.46a26.65,26.65,0,0,1-4.54,2.24A15.8,15.8,0,0,1,1268.2,210Zm-9.79-18.82h16.64q0-4.74-2-7.2a6.94,6.94,0,0,0-5.67-2.46,8,8,0,0,0-3.17.64,8.3,8.3,0,0,0-2.72,1.89,10.19,10.19,0,0,0-2,3A13.48,13.48,0,0,0,1258.41,191.22Z"/>
        <path class="cls-3" d="M1292.91,210q-3,0-4.29-1.79a9,9,0,0,1-1.28-5.25V163.7h5.25v39.68a2.72,2.72,0,0,0,.44,1.79,1.32,1.32,0,0,0,1,.52h.48a3,3,0,0,0,.67-.13l.7,4a4.66,4.66,0,0,1-1.21.38A10.87,10.87,0,0,1,1292.91,210Z"/>
        <path class="cls-3" d="M1311.79,210a16.76,16.76,0,0,1-6.34-1.22,19.56,19.56,0,0,1-5.25-3.07l2.63-3.52a20.74,20.74,0,0,0,4.19,2.69,11.42,11.42,0,0,0,5,1,6.58,6.58,0,0,0,4.6-1.41,4.47,4.47,0,0,0,1.54-3.45,3.5,3.5,0,0,0-.64-2.11,6.43,6.43,0,0,0-1.63-1.57,12.4,12.4,0,0,0-2.27-1.19l-2.56-1c-1.11-.38-2.22-.82-3.33-1.31a13.55,13.55,0,0,1-3-1.79,9.14,9.14,0,0,1-2.14-2.47,6.5,6.5,0,0,1-.83-3.39,8.4,8.4,0,0,1,.73-3.49,8.07,8.07,0,0,1,2.11-2.81,10,10,0,0,1,3.37-1.86,13.81,13.81,0,0,1,4.47-.67,14,14,0,0,1,5.41,1,16.79,16.79,0,0,1,4.26,2.5l-2.5,3.33a16.5,16.5,0,0,0-3.32-2,9.29,9.29,0,0,0-3.78-.77,6,6,0,0,0-4.32,1.35,4.23,4.23,0,0,0-1.38,3.13,3.16,3.16,0,0,0,.58,1.89,5.4,5.4,0,0,0,1.54,1.41,11.87,11.87,0,0,0,2.2,1.09l2.6,1,3.36,1.34a13.14,13.14,0,0,1,3,1.76,8.66,8.66,0,0,1,2.2,2.6,7.4,7.4,0,0,1,.87,3.71,8.76,8.76,0,0,1-.74,3.58,8.58,8.58,0,0,1-2.17,2.95,10.46,10.46,0,0,1-3.59,2A15,15,0,0,1,1311.79,210Z"/>
        <path class="cls-3" d="M1343.08,210a15.4,15.4,0,0,1-5.86-1.12,14,14,0,0,1-4.73-3.2,14.76,14.76,0,0,1-3.17-5.09,20.81,20.81,0,0,1,0-13.73,16.23,16.23,0,0,1,3.14-5.15,13.55,13.55,0,0,1,4.45-3.23,12.45,12.45,0,0,1,5.18-1.12,13.09,13.09,0,0,1,5.28,1,10.21,10.21,0,0,1,3.9,3,13.51,13.51,0,0,1,2.41,4.6,20.52,20.52,0,0,1,.83,6c0,.56,0,1.1,0,1.63a7.38,7.38,0,0,1-.16,1.38h-21a12.15,12.15,0,0,0,3.11,7.9,9.57,9.57,0,0,0,7.26,2.91,12.21,12.21,0,0,0,4.13-.67,18,18,0,0,0,3.61-1.76l1.86,3.46a26.65,26.65,0,0,1-4.54,2.24A15.84,15.84,0,0,1,1343.08,210Zm-9.79-18.82h16.64q0-4.74-2-7.2a6.9,6.9,0,0,0-5.66-2.46,8,8,0,0,0-3.17.64,8.3,8.3,0,0,0-2.72,1.89,10.41,10.41,0,0,0-2,3A13.78,13.78,0,0,0,1333.29,191.22Z"/>
        <path class="cls-3" d="M1362.22,209.27v-31.1h4.35l.45,5.63h.19a14.22,14.22,0,0,1,3.87-4.67,8,8,0,0,1,5-1.73,8.21,8.21,0,0,1,3.33.64l-1,4.61a13.27,13.27,0,0,0-1.4-.39,8.82,8.82,0,0,0-1.6-.13,7,7,0,0,0-4.13,1.6,12.82,12.82,0,0,0-3.75,5.57v20Z"/>
    </g>
    <g id="tjenestenavn">
        <path class="cls-3" d="M469.79,132.74a20.44,20.44,0,0,1-14.11-5q-5.64-5-5.64-14.19,0-11.12,9.88-17t31.57-8.27a31.64,31.64,0,0,0-.62-6.26,15.77,15.77,0,0,0-2.16-5.43,11.32,11.32,0,0,0-4.24-3.82,14.36,14.36,0,0,0-6.89-1.46,27.46,27.46,0,0,0-11,2.22,54.44,54.44,0,0,0-9.18,5L453,70.56a73.4,73.4,0,0,1,11.55-5.91,38.54,38.54,0,0,1,15-2.85q12.38,0,17.94,7.58T503,89.62v41.45h-9.46l-1-8.07h-.42a57.58,57.58,0,0,1-10.43,6.89A25.88,25.88,0,0,1,469.79,132.74Zm3.34-9.18a19.23,19.23,0,0,0,9.18-2.3,45.54,45.54,0,0,0,9.18-6.74V95.74a114.9,114.9,0,0,0-14.25,2.64,37.51,37.51,0,0,0-9.32,3.62,13.92,13.92,0,0,0-5.15,4.8,11.4,11.4,0,0,0-1.6,5.91c0,3.89,1.16,6.68,3.48,8.34A14.1,14.1,0,0,0,473.13,123.56Z"/>
        <path class="cls-3" d="M469.79,132.74a20.47,20.47,0,0,1-14.12-5q-5.62-5-5.63-14.18,0-11.13,9.87-17t31.58-8.28a31.72,31.72,0,0,0-.62-6.26,15.77,15.77,0,0,0-2.16-5.43,11.39,11.39,0,0,0-4.24-3.82,14.5,14.5,0,0,0-6.89-1.46,27.46,27.46,0,0,0-11,2.22,54.44,54.44,0,0,0-9.18,5L453,70.56a73.4,73.4,0,0,1,11.55-5.91,38.54,38.54,0,0,1,15-2.85q12.38,0,17.94,7.58T503,89.62v41.45h-9.46l-1-8.07h-.41a56.8,56.8,0,0,1-10.44,6.89A25.84,25.84,0,0,1,469.79,132.74Zm3.34-9.18a19.28,19.28,0,0,0,9.18-2.29,46.19,46.19,0,0,0,9.18-6.75V95.74a115.1,115.1,0,0,0-14.26,2.64,38.07,38.07,0,0,0-9.32,3.62,14,14,0,0,0-5.14,4.8,11.4,11.4,0,0,0-1.6,5.91c0,3.9,1.15,6.68,3.47,8.35A14.14,14.14,0,0,0,473.13,123.56Z"/>
        <path class="cls-3" d="M520.92,131.11V63.51h9.45l1,9.74h.42A54.75,54.75,0,0,1,542,65.11a23.41,23.41,0,0,1,12.45-3.27q10.71,0,15.65,6.68T575,88.27v42.84H563.62V89.8q0-9.6-3.06-13.84t-9.74-4.24a16.64,16.64,0,0,0-9.32,2.64,60.33,60.33,0,0,0-9.18,7.79v49Z"/>
        <path class="cls-3" d="M611.67,132.74a36.44,36.44,0,0,1-13.77-2.64,43,43,0,0,1-11.41-6.68l5.71-7.65a45.31,45.31,0,0,0,9.11,5.84,24.63,24.63,0,0,0,10.78,2.23q6.67,0,10-3.06a9.78,9.78,0,0,0,3.34-7.51,7.68,7.68,0,0,0-1.39-4.59,13.76,13.76,0,0,0-3.55-3.41,26.23,26.23,0,0,0-4.93-2.57L610,100.47q-3.62-1.25-7.23-2.85a29.06,29.06,0,0,1-6.47-3.9,19.61,19.61,0,0,1-4.66-5.35A14.2,14.2,0,0,1,589.83,81a18.23,18.23,0,0,1,1.6-7.59A17.63,17.63,0,0,1,596,67.29a21.77,21.77,0,0,1,7.3-4,32.61,32.61,0,0,1,21.5.77,36.77,36.77,0,0,1,9.25,5.42l-5.43,7.23a36.42,36.42,0,0,0-7.23-4.31,20.05,20.05,0,0,0-8.21-1.67q-6.41,0-9.39,2.92a9.26,9.26,0,0,0-3,6.82,6.85,6.85,0,0,0,1.25,4.1,11.93,11.93,0,0,0,3.34,3.06,27.52,27.52,0,0,0,4.8,2.37l5.63,2.15q3.61,1.39,7.31,2.93a27.94,27.94,0,0,1,6.6,3.82,18.79,18.79,0,0,1,4.8,5.63,16.16,16.16,0,0,1,1.88,8.07,19,19,0,0,1-1.6,7.79,18.52,18.52,0,0,1-4.73,6.4,22.33,22.33,0,0,1-7.79,4.38A32.6,32.6,0,0,1,611.67,132.74Z"/>
        <path class="cls-3" d="M650.29,131.07V32h11.26V99.08H662l28.8-35.61h12.65L680.75,90.59l25.73,40.48H694L674.21,98.52l-12.66,14.75v17.8Z"/>
        <path class="cls-3" d="M733.33,132.74a20.47,20.47,0,0,1-14.12-5q-5.62-5-5.63-14.18,0-11.13,9.87-17T755,88.23a31.72,31.72,0,0,0-.62-6.26,15.77,15.77,0,0,0-2.16-5.43A11.39,11.39,0,0,0,748,72.72a14.5,14.5,0,0,0-6.89-1.46,27.46,27.46,0,0,0-11,2.22,54.44,54.44,0,0,0-9.18,5l-4.45-7.93a73.4,73.4,0,0,1,11.55-5.91,38.54,38.54,0,0,1,15-2.85q12.38,0,17.94,7.58t5.57,20.24v41.45h-9.46l-1-8.07h-.41a56.8,56.8,0,0,1-10.44,6.89A25.84,25.84,0,0,1,733.33,132.74Zm3.34-9.18a19.28,19.28,0,0,0,9.18-2.29,46.19,46.19,0,0,0,9.18-6.75V95.74a115.1,115.1,0,0,0-14.26,2.64,38.07,38.07,0,0,0-9.32,3.62,14,14,0,0,0-5.14,4.8,11.4,11.4,0,0,0-1.6,5.91q0,5.85,3.47,8.35A14.14,14.14,0,0,0,736.67,123.56Z"/>
        <path class="cls-3" d="M891.13,132.74a33.12,33.12,0,0,1-12.72-2.43,30,30,0,0,1-10.3-7,32.18,32.18,0,0,1-6.88-11.06,41.34,41.34,0,0,1-2.51-14.88,40.83,40.83,0,0,1,2.58-15,34.81,34.81,0,0,1,6.81-11.2,29.69,29.69,0,0,1,9.67-7,27.28,27.28,0,0,1,11.27-2.43A28.18,28.18,0,0,1,900.52,64,22.3,22.3,0,0,1,909,70.42a29.53,29.53,0,0,1,5.22,10A44.27,44.27,0,0,1,916,93.51c0,1.21,0,2.39-.07,3.55a17,17,0,0,1-.34,3H870q.69,10.86,6.75,17.18t15.79,6.33a26.7,26.7,0,0,0,9-1.46,40.16,40.16,0,0,0,7.86-3.82l4,7.51a58.62,58.62,0,0,1-9.88,4.87A34.29,34.29,0,0,1,891.13,132.74ZM869.85,91.85H906q0-10.3-4.38-15.65t-12.31-5.36a17.53,17.53,0,0,0-6.89,1.39,18.13,18.13,0,0,0-5.91,4.11,22.48,22.48,0,0,0-4.38,6.6A29.84,29.84,0,0,0,869.85,91.85Z"/>
        <path class="cls-3" d="M942.83,132.74q-6.54,0-9.32-3.89t-2.79-11.41V32h11.41v86.25a6,6,0,0,0,1,3.89,2.9,2.9,0,0,0,2.23,1.11h1a5.67,5.67,0,0,0,1.46-.28l1.53,8.63a9.64,9.64,0,0,1-2.64.83A22,22,0,0,1,942.83,132.74Z"/>
        <path class="cls-3" d="M982.86,132.74a36.44,36.44,0,0,1-13.77-2.64,43,43,0,0,1-11.41-6.68l5.7-7.65a45.66,45.66,0,0,0,9.12,5.84,24.6,24.6,0,0,0,10.78,2.23q6.68,0,10-3.06a9.78,9.78,0,0,0,3.34-7.51,7.75,7.75,0,0,0-1.39-4.59,13.76,13.76,0,0,0-3.55-3.41,26,26,0,0,0-4.94-2.57l-5.56-2.23q-3.62-1.25-7.23-2.85a28.83,28.83,0,0,1-6.47-3.9,19.61,19.61,0,0,1-4.66-5.35A14.2,14.2,0,0,1,961,81a18.23,18.23,0,0,1,1.6-7.59,17.51,17.51,0,0,1,4.59-6.12,21.77,21.77,0,0,1,7.3-4A32.58,32.58,0,0,1,996,64a36.42,36.42,0,0,1,9.25,5.42l-5.42,7.23a36.42,36.42,0,0,0-7.23-4.31,20.05,20.05,0,0,0-8.21-1.67q-6.4,0-9.39,2.92a9.22,9.22,0,0,0-3,6.82,6.85,6.85,0,0,0,1.25,4.1,11.93,11.93,0,0,0,3.34,3.06A27.52,27.52,0,0,0,981.4,90L987,92.12c2.41.93,4.85,1.91,7.3,2.93a28,28,0,0,1,6.61,3.82,18.79,18.79,0,0,1,4.8,5.63,16.27,16.27,0,0,1,1.88,8.07,19.15,19.15,0,0,1-1.6,7.79,18.52,18.52,0,0,1-4.73,6.4,22.42,22.42,0,0,1-7.79,4.38A32.6,32.6,0,0,1,982.86,132.74Z"/>
        <path class="cls-3" d="M1048.88,132.74a33.13,33.13,0,0,1-12.73-2.43,30,30,0,0,1-10.29-7,32.2,32.2,0,0,1-6.89-11.06,41.34,41.34,0,0,1-2.5-14.88,40.83,40.83,0,0,1,2.57-15,35,35,0,0,1,6.82-11.2,29.65,29.65,0,0,1,9.66-7,27.31,27.31,0,0,1,11.27-2.43A28.23,28.23,0,0,1,1058.27,64a22.34,22.34,0,0,1,8.48,6.39,29.35,29.35,0,0,1,5.22,10,44.26,44.26,0,0,1,1.81,13.07c0,1.21,0,2.39-.07,3.55a17,17,0,0,1-.35,3h-45.62q.69,10.86,6.74,17.18t15.79,6.33a26.66,26.66,0,0,0,9-1.46,39.62,39.62,0,0,0,7.86-3.82l4,7.51a58.62,58.62,0,0,1-9.88,4.87A34.37,34.37,0,0,1,1048.88,132.74ZM1027.6,91.85h36.16q0-10.3-4.38-15.65t-12.31-5.36a17.48,17.48,0,0,0-6.88,1.39,18.06,18.06,0,0,0-5.92,4.11,22.48,22.48,0,0,0-4.38,6.6A29.84,29.84,0,0,0,1027.6,91.85Z"/>
        <path class="cls-3" d="M1089.47,131.07V63.47h9.46l1,12.24h.42a31.27,31.27,0,0,1,8.41-10.15,17.4,17.4,0,0,1,10.78-3.76,18,18,0,0,1,7.24,1.39l-2.23,10a26.6,26.6,0,0,0-3.06-.84,18.54,18.54,0,0,0-3.47-.28q-4.32,0-9,3.48t-8.13,12.1v43.4Z"/>
        <path class="cls-3" d="M1135.79,132.74a8,8,0,0,1-5.91-2.43,8.36,8.36,0,0,1-2.44-6.19,8.72,8.72,0,0,1,2.44-6.47,8.05,8.05,0,0,1,5.91-2.44,7.9,7.9,0,0,1,5.77,2.44,8.76,8.76,0,0,1,2.44,6.47,8.4,8.4,0,0,1-2.44,6.19A7.89,7.89,0,0,1,1135.79,132.74Z"/>
        <path class="cls-3" d="M1163.44,131.07V63.47h9.46l1,9.74h.41a55.13,55.13,0,0,1,10.23-8.14A23.41,23.41,0,0,1,1197,61.8q10.71,0,15.65,6.68t4.93,19.75v42.84h-11.4V89.76q0-9.6-3.06-13.84t-9.74-4.24a16.62,16.62,0,0,0-9.32,2.64,60.33,60.33,0,0,0-9.18,7.79v49Z"/>
        <path class="cls-3" d="M1263.82,132.74a30.51,30.51,0,0,1-11.89-2.36,29.29,29.29,0,0,1-10-6.89,33.41,33.41,0,0,1-6.88-11.13,40.83,40.83,0,0,1-2.58-15,41.22,41.22,0,0,1,2.58-15.09,34.26,34.26,0,0,1,6.88-11.2,28.94,28.94,0,0,1,10-7,31.16,31.16,0,0,1,23.79,0,28.9,28.9,0,0,1,9.94,7,34.45,34.45,0,0,1,6.89,11.2,41.43,41.43,0,0,1,2.57,15.09,41,41,0,0,1-2.57,15,33.59,33.59,0,0,1-6.89,11.13,29.26,29.26,0,0,1-9.94,6.89A30.55,30.55,0,0,1,1263.82,132.74Zm0-9.46a16.84,16.84,0,0,0,7.93-1.88,18.26,18.26,0,0,0,6.19-5.28,25.12,25.12,0,0,0,4-8.14,37.68,37.68,0,0,0,1.39-10.57,38.4,38.4,0,0,0-1.39-10.64,25.89,25.89,0,0,0-4-8.28,17.93,17.93,0,0,0-6.19-5.35,17.66,17.66,0,0,0-15.86,0,17.93,17.93,0,0,0-6.19,5.35,26.09,26.09,0,0,0-4,8.28,38,38,0,0,0-1.39,10.64,37.32,37.32,0,0,0,1.39,10.57,25.31,25.31,0,0,0,4,8.14,18.26,18.26,0,0,0,6.19,5.28A16.87,16.87,0,0,0,1263.82,123.28Z"/>
        <path class="cls-3" d="M818.33,32a27.37,27.37,0,0,0-5.3-1.6,30.05,30.05,0,0,0-6.1-.6c-6.8,0-11.9,2-15.2,6.1s-4.9,9.6-4.9,16.6V63l-9.2.7v9.1h9.2v58.4h11.9V72.81h14.4V63h-14.4V52.51c0-8.6,3-12.9,9.2-12.9a18.66,18.66,0,0,1,7.6,1.7l.3.1,2.7-9.3Z"/>
        <path class="cls-3" d="M859.86,32a27.37,27.37,0,0,0-5.3-1.6,30.05,30.05,0,0,0-6.1-.6c-6.8,0-11.9,2-15.2,6.1s-4.9,9.6-4.9,16.6V63l-9.2.7v9.1h9.2v58.4h11.9V72.81h14.4V63h-14.4V52.51c0-8.6,3-12.9,9.2-12.9a18.66,18.66,0,0,1,7.6,1.7l.3.1,2.7-9.3Z"/>
    </g>
</svg>