<svg width="393" height="105" viewBox="0 0 393 105" fill="none"
    xmlns="http://www.w3.org/2000/svg">
    <path d="M265.225 27.8292L265.724 38.8013C262.931 36.5071 260.038 34.7117 257.345 33.415C254.453 32.0186 250.961 31.3203 247.071 31.3203C243.181 31.3203 239.391 32.218 235.8 33.814C232.309 35.5097 229.117 37.9036 226.424 40.9957C223.731 44.0878 221.536 47.8782 219.94 52.267C218.344 56.6559 217.447 61.6432 217.447 67.1292C217.447 78.4005 220.04 87.2779 225.127 93.4622C230.214 99.6465 237.097 102.739 245.675 102.739C249.665 102.739 253.455 101.741 256.946 99.846C260.437 97.9508 263.529 95.6566 266.223 93.163H266.322L267.32 101.043H277.294V1.49622H265.225V27.8292ZM265.225 48.3769V83.4876C262.532 86.5797 259.739 88.8739 257.046 90.3701C254.353 91.8663 251.36 92.6642 248.268 92.6642C242.483 92.6642 237.895 90.3701 234.703 85.9812C231.511 81.4927 229.915 75.1089 229.915 67.0295C229.915 63.1394 230.414 59.6482 231.411 56.5561C232.409 53.464 233.805 50.7708 235.501 48.4767C237.197 46.2823 239.291 44.4868 241.585 43.2899C243.88 42.0929 246.373 41.3947 249.066 41.3947C251.759 41.3947 254.552 41.8934 257.146 42.9906C259.639 44.0878 262.432 45.8833 265.225 48.3769Z" fill="#012A4C"/>
    <path d="M329.562 2.19442C327.966 1.49619 326.17 0.997462 324.275 0.598477C322.38 0.199492 320.285 0 318.19 0C311.408 0 306.321 1.99492 303.029 6.08452C299.837 10.0744 298.141 15.6602 298.141 22.6424V33.1157L288.965 33.814V42.8909H298.141V101.143H310.011V42.8909H324.375V33.1157H310.011V22.6424C310.011 14.0642 313.004 9.77513 319.188 9.77513C321.781 9.77513 324.275 10.3736 326.769 11.4708L327.068 11.5706L329.761 2.29416L329.562 2.19442Z" fill="#012A4C"/>
    <path d="M384.92 43.1901L392.501 34.1132L387.115 29.7244L380.133 38.2028C377.439 35.9086 374.447 34.2129 371.255 33.1157C367.864 31.9188 364.373 31.3203 360.882 31.3203C356.692 31.3203 352.702 32.1183 348.912 33.7142C345.122 35.3102 341.73 37.7041 338.838 40.6964C335.945 43.7886 333.651 47.5789 331.855 51.9678C330.16 56.3566 329.262 61.4437 329.262 67.1292C329.262 72.1165 329.96 76.7048 331.257 80.5949C332.554 84.485 334.349 87.8764 336.643 90.8688L329.062 99.9457L334.648 104.335L341.431 95.9558C347.017 100.444 353.5 102.639 360.682 102.639C364.871 102.639 368.861 101.841 372.652 100.245C376.442 98.649 379.833 96.3548 382.726 93.2627C385.619 90.2703 387.913 86.48 389.708 82.0911C391.404 77.7023 392.302 72.6152 392.302 67.0294C392.302 62.0421 391.603 57.4538 390.307 53.3642C389.01 49.5739 387.215 46.0827 384.92 43.1901ZM360.882 41.0954C365.869 41.0954 370.158 42.8909 373.45 46.382L344.124 81.8916C342.129 77.7023 341.132 72.6152 341.132 66.6305C341.132 62.8401 341.631 59.349 342.628 56.2569C343.625 53.065 345.022 50.3718 346.718 48.1774C348.413 45.983 350.508 44.1876 353.002 42.9906C355.395 41.6939 357.989 41.0954 360.882 41.0954ZM360.882 93.1629C355.994 93.1629 351.805 91.3675 348.314 87.9761L377.539 52.267C379.634 56.5561 380.631 61.6432 380.631 67.6279C380.631 71.4183 380.133 74.9094 379.135 78.0015C378.138 81.0937 376.741 83.7868 375.045 86.081C373.25 88.2754 371.155 90.0708 368.761 91.2678C366.268 92.4647 363.674 93.1629 360.882 93.1629Z" fill="#012A4C"/>
    <path d="M197.897 1.89514H113.112V30.1233H197.897V1.89514Z" fill="#009FE3"/>
    <path d="M197.996 72.6152H56.5562V100.843H197.996V72.6152Z" fill="#A6DDF5"/>
    <path d="M197.896 37.3051H0V65.5332H197.896V37.3051Z" fill="#012A4C"/>
</svg>
